
<svg xmlns="http://www.w3.org/2000/svg" width="1275.71" height="729.08" viewBox="0 0 1275.71 729.08">
  <g id="Group_910" data-name="Group 910" transform="translate(-633 -695)">
    <g id="Group_1000" data-name="Group 1000" transform="translate(633 695)" opacity="0.41">
      <g id="Group_999" data-name="Group 999" transform="translate(0 218.715)" opacity="0.142">
        <path id="Path_840" data-name="Path 840" d="M166.1,1765.657l119.394,90.763,182.822-210.849,82.083,71.912,46.016-48.872,54.722,21.644,179.091-156.391,150.486,84.479,174.116-219.925,94.52,43.985,39.485-33.2v499.58H13.126Z" transform="translate(-13.126 -1398.418)" fill="#329fe3"/>
      </g>
      <path id="Path_835" data-name="Path 835" d="M1009.267,675.884s-28.915-26.757-51.355,13.378c0,0-37.976-.147-37.976,22.872,0,18.557,15.966,22.441,15.966,22.441s-7.767,37.544,25.031,35.818,28.915-3.451,28.915-3.451,15.535,21.145,36.249,14.24,18.988-28.482,18.988-28.482,26.757-8.2,24.167-23.736-24.167-22.441-24.167-22.441,13.81-13.378,2.157-25.893S1009.267,675.884,1009.267,675.884Z" transform="translate(105.13 -667.147)" fill="#3a8add" opacity="0.136"/>
      <path id="Path_838" data-name="Path 838" d="M89.331,8.737S60.416-18.02,37.976,22.115c0,0-37.976-.147-37.976,22.871C0,63.543,15.966,67.427,15.966,67.427S8.2,104.971,41,103.245s28.915-3.451,28.915-3.451,15.535,21.145,36.249,14.24,18.988-28.482,18.988-28.482,26.757-8.2,24.167-23.736-24.167-22.441-24.167-22.441S138.959,26,127.306,13.483,89.331,8.737,89.331,8.737Z" transform="translate(887.32 213.108) rotate(-8)" fill="#3a8add" opacity="0.136"/>
      <path id="Path_839" data-name="Path 839" d="M63.017,6.163S42.619-12.712,26.789,15.6C26.789,15.6,0,15.5,0,31.735c0,13.091,11.263,15.83,11.263,15.83S5.784,74.05,28.921,72.832s20.4-2.434,20.4-2.434S60.277,85.314,74.889,80.443,88.284,60.351,88.284,60.351s18.875-5.784,17.048-16.744-17.048-15.83-17.048-15.83,9.742-9.437,1.522-18.266S63.017,6.163,63.017,6.163Z" transform="translate(569.798 368.638) rotate(-8)" fill="#3a8add" opacity="0.136"/>
      <path id="Path_837" data-name="Path 837" d="M902.488,713.236s-36.477-33.754-64.786,16.877c0,0-47.909-.184-47.909,28.855,0,23.41,20.144,28.31,20.144,28.31s-9.8,47.365,31.576,45.187,36.476-4.356,36.476-4.356,19.6,26.677,45.732,17.966,23.954-35.931,23.954-35.931S981.429,799.8,978.163,780.2s-30.488-28.31-30.488-28.31,17.422-16.877,2.722-32.665S902.488,713.236,902.488,713.236Z" transform="translate(-168.787 -481.346)" fill="#3a8add" opacity="0.136"/>
      <path id="Path_842" data-name="Path 842" d="M140.706,1896.335l5.458,30.34-24.782-24.219-20.87,24.219v-28.006L69.965,1913.89l48.1-56.506,47.661,42.305Z" transform="translate(336.69 -1392.263)" fill="#3d83a5" opacity="0.234"/>
      <path id="Path_843" data-name="Path 843" d="M139.759,1884.555l11.146,41.559-26.53-33.454-21.215,33.454,4.161-35.83-41.956,16.523,56.177-48.168,59.257,32.812Z" transform="translate(695.309 -1504.53)" fill="#3d83a5" opacity="0.234"/>
      <path id="Path_844" data-name="Path 844" d="M136.407,1884.555l11.188,41.559-26.63-33.454L99.67,1926.115l4.177-35.83-25.314,15.936,39.588-47.581,60.517,29.277Z" transform="translate(1024.277 -1639.501)" fill="#3d83a5" opacity="0.234"/>
      <path id="Path_845" data-name="Path 845" d="M126.405,1873.095l7.342,22.877-16.6-16.6-5.942,14.555-4.539-14.555-21.32,9.813,29.8-31.8,43.655,18.584Z" transform="translate(468.878 -1369.119)" fill="#3d83a5" opacity="0.234"/>
    </g>
    <g id="Group_1001" data-name="Group 1001" transform="translate(982.784 1243.273)" opacity="0.459">
      <path id="Path_848" data-name="Path 848" d="M39.974,29.546,38.518,48.839h5.516l-1.38-21.39Z" transform="translate(-19.401 21.207)" fill="#2170c4" opacity="0.262"/>
      <path id="Path_849" data-name="Path 849" d="M1784.5,7337.637l16.3,29.326-7.692-3.463,15.844,36.95-23.3-12.546-21.954,14.542,10.618-27.729-7.076,3.541,12.187-24.073-5.111,3.4Z" transform="translate(-1763.698 -7337.637)" fill="#2170c4" opacity="0.262"/>
    </g>
    <g id="Group_1003" data-name="Group 1003" transform="translate(1790.638 1195.64)" opacity="0.376">
      <path id="Path_848-2" data-name="Path 848" d="M40.415,30.181l-1.9,25.142h7.188l-1.8-27.874Z" transform="translate(-13.606 35.955)" fill="#0a3453" opacity="0.262"/>
      <path id="Path_849-2" data-name="Path 849" d="M1790.8,7337.636l21.245,38.216-10.024-4.512,20.647,48.15-30.361-16.349-28.609,18.95,13.836-36.134-9.219,4.614,15.881-31.37-6.661,4.432Z" transform="translate(-1763.698 -7337.636)" fill="#0a3453" opacity="0.262"/>
    </g>
    <g id="Group_1004" data-name="Group 1004" transform="translate(1708.037 1213.826)" opacity="0.376">
      <path id="Path_850" data-name="Path 850" d="M2103.224,7334.463l-9.927,3.5-7.952,9.173,1.937,13.552,13.235,5.3h18.561l9.014-9.018-1.143-15.021-10.036-7.483Z" transform="translate(-2085.345 -7334.463)" fill="#2170c4" opacity="0.233"/>
      <path id="Path_851" data-name="Path 851" d="M40.231,29.916l-1.713,22.7h6.49L43.385,27.448Z" transform="translate(-20.554 -1.95)" fill="#2170c4" opacity="0.262"/>
    </g>
    <g id="Group_1005" data-name="Group 1005" transform="translate(1765.644 1222.3)" opacity="0.376">
      <path id="Path_852" data-name="Path 852" d="M2134.314,7350.888l-18.445,63.62h40.436Z" transform="translate(-2115.869 -7350.888)" fill="#2170c4" opacity="0.155"/>
      <path id="Path_853" data-name="Path 853" d="M40.415,30.181l-1.9,25.142h7.188l-1.8-27.874Z" transform="translate(-21.468 25.571)" fill="#0a3453" opacity="0.262"/>
    </g>
    <g id="Group_1009" data-name="Group 1009" transform="translate(967.463 1268.6)">
      <path id="Path_852-2" data-name="Path 852" d="M2130.024,7350.89l-14.155,48.821H2146.9Z" transform="translate(-2115.869 -7350.89)" fill="#2170c4" opacity="0.155"/>
      <path id="Path_853-2" data-name="Path 853" d="M39.974,29.546,38.518,48.839h5.516l-1.38-21.39Z" transform="translate(-25.434 13.238)" fill="#0a3453" opacity="0.262"/>
    </g>
  </g>
</svg>
